<svg width="64" height="50" viewBox="0 0 64 50" fill="none" xmlns="http://www.w3.org/2000/svg">
<path d="M54.6221 18.9737C53.0496 15.3847 50.5171 12.2509 47.2769 9.88465C44.0368 7.5184 40.2023 6.00233 36.1554 5.48752C32.1085 4.97271 27.9907 5.47715 24.2122 6.95057C20.4338 8.42398 17.1267 10.8149 14.6206 13.8851C12.1144 16.9552 10.4967 20.5974 9.92871 24.4487C9.36069 28.2999 9.86217 32.2257 11.3832 35.8348C12.9042 39.4439 15.3916 42.6103 18.5976 45.0184C21.8035 47.4265 25.616 48.9923 29.6552 49.5596C29.1261 47.7435 28.5879 45.7363 28.1135 43.6075C29.4935 44.4602 30.9459 45.2013 32.4556 45.8232V45.8232C32.4556 45.8232 32.5651 47.7001 32.711 49.7942C34.3423 49.821 35.9719 49.6841 37.5731 49.3858C37.5317 49.1674 37.5317 48.9438 37.5731 48.7254C37.8376 47.1006 38.5674 44.1723 38.7133 42.2868C39.7653 41.3494 40.6578 40.2618 41.3587 39.0631V39.0631L41.304 39.4454C40.8023 43.147 39.7532 47.1006 39.1147 48.1954C38.908 48.5578 38.6535 48.8936 38.3576 49.1946C41.6595 48.4568 44.7535 47.0437 47.4251 45.0533C50.0966 43.063 52.2817 40.543 53.829 37.6681C55.3762 34.7932 56.2486 31.6321 56.3855 28.404C56.5225 25.176 55.9208 21.9582 54.6221 18.9737V18.9737ZM53.2812 22.2669C52.8798 22.6405 52.0497 22.8925 51.9129 21.7629C51.776 20.6333 51.7395 19.8426 51.7395 19.8426C51.7395 19.8426 49.979 16.8622 49.3222 16.8275C48.6654 16.7927 44.0041 19.8426 42.7726 21.1721C41.7053 22.293 41.4955 22.2148 41.4955 24.1872C41.4955 25.6731 41.6962 31.2863 41.5867 35.5787L34.1523 37.4643C31.8156 38.1031 29.4392 38.6022 27.0371 38.9588L26.1249 33.893H25.9972L23.6529 22.4494C23.6529 22.4494 20.1774 21.1981 18.9003 20.8593C18.3007 20.6094 17.6385 20.5281 16.9919 20.6251C16.3454 20.7221 15.7415 20.9933 15.2515 21.4067C14.7516 21.8236 14.3519 22.3382 14.0796 22.9155C13.8073 23.4927 13.6687 24.1191 13.6734 24.752C13.8662 25.1559 14.013 25.5783 14.1113 26.0119C14.1569 26.429 13.0166 26.3856 12.2869 26.3856C11.5571 26.3856 11.4476 25.1343 12.0223 23.6659C12.4707 22.5367 13.0264 21.4489 13.6825 20.4161C14.176 19.4935 14.8126 18.647 15.5708 17.9049C15.5708 17.9049 15.6985 17.6095 16.711 17.6964C17.7236 17.7833 23.3519 18.07 23.3519 18.07L23.3975 16.0976C29.515 15.293 35.6849 14.9039 41.8604 14.9332C41.8604 15.4633 41.8604 15.9933 41.8604 16.5234C44.1995 15.5066 46.7183 14.9171 49.2857 14.7855C49.4231 14.7822 49.5592 14.8115 49.6818 14.8706C49.8044 14.9297 49.9096 15.017 49.9881 15.1244C50.2983 15.498 52.1865 17.7312 52.4054 18.0527C53.0186 18.8874 53.5762 19.7581 54.0748 20.6594C53.9039 21.2301 53.6358 21.7702 53.2812 22.2582V22.2669Z" fill="#FDC305"/>
<path d="M51.5029 16.9491C51.9316 17.4705 52.3056 17.931 52.4151 18.07C53.0283 18.9048 53.5858 19.7754 54.0844 20.6768C53.9108 21.2288 53.646 21.7509 53.2999 22.2234C52.8985 22.5971 52.0684 22.8491 51.9316 21.7195C51.7948 20.5899 51.74 19.8426 51.74 19.8426C51.74 19.8426 49.9795 16.8622 49.3227 16.8275C48.6659 16.7927 44.0046 19.8426 42.7731 21.1721C41.7058 22.293 41.496 22.2148 41.496 24.1872C41.496 25.4906 41.6511 29.9655 41.6146 33.9451C43.2657 34.1189 45.6922 34.5534 46.4219 35.5787C46.4219 35.5787 46.1574 29.3399 53.5462 32.607C53.5462 32.607 53.8016 24.1003 64 26.2813C60.5331 22.404 56.2832 19.2304 51.5029 16.9491V16.9491Z" fill="#F06351"/>
<path d="M41.8974 14.9332C41.9345 10.1183 41.5071 5.3104 40.6204 0.570041C40.6204 0.570041 40.4835 -0.559551 39.8268 0.361501C39.2848 1.46261 38.916 2.63372 38.7321 3.83717C34.8326 3.59884 30.9185 3.69772 27.0377 4.1326C26.2897 1.74308 25.0126 0.656933 24.4014 0.943675C23.7903 1.23042 23.7173 3.79372 23.7173 3.79372L23.4163 16.0976C29.5398 15.2922 35.7158 14.9031 41.8974 14.9332V14.9332Z" fill="#F06351"/>
<path d="M41.3676 39.0631C41.4861 38.1333 41.55 36.8995 41.5865 35.5353L34.1524 37.4208C31.8168 38.0743 29.4405 38.5879 27.0376 38.9588L28.0501 43.3034C28.0501 43.399 28.0501 43.4945 28.1139 43.5901C29.4938 44.4428 30.9462 45.1839 32.4558 45.8059C34.662 44.8012 36.7633 43.5997 38.7314 42.2172V42.2694C39.7787 41.3367 40.6679 40.2551 41.3676 39.0631V39.0631Z" fill="#E55645"/>
<path d="M29.1904 12.2135C29.1448 12.1266 30.1026 12.8044 30.4766 13.0129C30.8505 13.2215 31.033 13.3779 31.033 13.5256C31.033 13.6733 30.7958 13.821 30.4674 13.821C30.1391 13.821 29.6283 13.7167 29.5553 13.5951C29.4823 13.4734 30.1026 13.5951 30.4127 13.5951H30.6772C30.1156 13.2037 29.6151 12.7386 29.1904 12.2135Z" fill="black"/>
<path d="M36.0319 12.3091C36.0319 12.3091 35.1197 13.4213 35.0376 13.4735C34.9555 13.5256 34.8826 13.7689 35.2109 13.7254C35.5879 13.6718 35.96 13.5905 36.3238 13.4821C36.4241 13.43 36.3876 13.3084 36.2143 13.3257C36.041 13.3431 35.594 13.3692 35.3022 13.4213L36.0775 12.3178C36.0775 12.3178 36.1048 12.2135 36.0319 12.3091Z" fill="black"/>
<path d="M33.1676 17.6182C33.5904 17.4407 33.9399 17.1353 34.1618 16.7493C34.4172 16.1758 34.1618 15.9586 33.7605 15.8804C33.2083 15.7844 32.6384 15.8899 32.1642 16.1758C31.8084 16.4973 31.854 16.8101 32.1642 17.0447C32.4723 17.2749 32.8094 17.4675 33.1676 17.6182V17.6182Z" fill="black"/>
<path d="M32.8391 18.713C32.7344 18.9101 32.5921 19.0869 32.4195 19.2344C32.1597 19.4335 31.8404 19.5491 31.5074 19.5646C31.0052 19.6115 30.503 19.4749 30.1027 19.1822C29.9188 19.0798 29.7552 18.9475 29.6192 18.7912C29.528 18.6966 29.4158 18.6224 29.2908 18.574C29.2908 18.574 29.9749 22.1453 31.6351 22.7187C33.2952 23.2922 33.6053 22.0584 33.6509 21.7282C33.7065 20.7393 33.4457 19.7576 32.903 18.9129C32.903 18.6522 32.8847 18.826 32.8391 18.713Z" fill="#F06351"/>
<path d="M31.2884 19.7036C30.8615 19.6451 30.4515 19.5049 30.0831 19.2913C29.7147 19.0778 29.3955 18.7953 29.1448 18.461C29.1224 18.4371 29.11 18.4062 29.11 18.3741C29.11 18.3421 29.1224 18.3111 29.1448 18.2872C29.1567 18.2757 29.1709 18.2665 29.1866 18.2602C29.2022 18.254 29.2191 18.2507 29.236 18.2507C29.253 18.2507 29.2699 18.254 29.2855 18.2602C29.3012 18.2665 29.3154 18.2757 29.3273 18.2872C29.553 18.5889 29.8394 18.8449 30.1697 19.0403C30.5001 19.2357 30.868 19.3666 31.2519 19.4255C31.5556 19.4038 31.8496 19.3137 32.1097 19.1626C32.3697 19.0116 32.5885 18.8039 32.7478 18.5566L32.8755 18.3915L32.9668 18.5827C32.9668 18.5827 33.3134 19.2431 33.8789 19.2778C34.4445 19.3126 34.8458 18.9129 35.3657 18.1569C35.3851 18.1293 35.4152 18.1101 35.4494 18.1035C35.4836 18.097 35.5191 18.1037 35.5482 18.1222C35.5772 18.1406 35.5973 18.1693 35.6042 18.2018C35.611 18.2344 35.604 18.2683 35.5846 18.2959C34.9765 19.1475 34.4019 19.5559 33.8607 19.5211C33.6515 19.4947 33.4512 19.424 33.2744 19.3143C33.0976 19.2045 32.9489 19.0585 32.8391 18.8868C32.6606 19.1242 32.4288 19.3207 32.1605 19.462C31.8923 19.6033 31.5943 19.6858 31.2884 19.7036Z" fill="black"/>
<path d="M33.0762 31.3992C34.9654 31.3992 36.4968 29.9403 36.4968 28.1408C36.4968 26.3412 34.9654 24.8823 33.0762 24.8823C31.1871 24.8823 29.6556 26.3412 29.6556 28.1408C29.6556 29.9403 31.1871 31.3992 33.0762 31.3992Z" fill="#FDC305"/>
<path d="M37.6096 25.4906L34.7545 26.6288L35.8035 21.7368L28.9623 30.2175L31.8174 29.0792L30.7684 33.9799L37.6096 25.4906ZM30.8687 28.8185L34.6633 24.1177L33.9245 27.5933L35.7488 26.8808L31.9268 31.5904L32.6657 28.1147L30.8687 28.8185Z" fill="#111111"/>
<path d="M29.5917 27.5412C30.156 27.5412 30.6134 27.1055 30.6134 26.568C30.6134 26.0306 30.156 25.5948 29.5917 25.5948C29.0275 25.5948 28.5701 26.0306 28.5701 26.568C28.5701 27.1055 29.0275 27.5412 29.5917 27.5412Z" fill="#111111"/>
<path d="M35.5393 31.069C35.9373 31.069 36.2599 30.7617 36.2599 30.3826C36.2599 30.0035 35.9373 29.6961 35.5393 29.6961C35.1414 29.6961 34.8187 30.0035 34.8187 30.3826C34.8187 30.7617 35.1414 31.069 35.5393 31.069Z" fill="#111111"/>
<path d="M36.415 29.1835C36.5913 29.1835 36.7343 29.0473 36.7343 28.8793C36.7343 28.7114 36.5913 28.5752 36.415 28.5752C36.2387 28.5752 36.0958 28.7114 36.0958 28.8793C36.0958 29.0473 36.2387 29.1835 36.415 29.1835Z" fill="#111111"/>
<path d="M41.8518 16.506C40.2051 17.9199 38.6543 19.432 37.2087 21.033C35.7687 22.6225 34.1437 24.0509 32.3649 25.2907C32.1642 24.8302 30.878 23.97 30.878 23.97C30.878 23.97 28.0137 22.1018 26.1346 20.6333C25.1187 19.8274 24.1618 18.9565 23.2703 18.0266L21.4459 17.931C24.0794 21.5954 27.9376 24.3027 32.3923 25.6122C33.1768 25.4906 35.3843 23.9873 37.0354 22.7622C38.9887 21.1798 40.818 19.4634 42.5086 17.6269C42.963 17.1124 43.3153 16.5236 43.5485 15.889C42.5086 16.2192 41.8518 16.506 41.8518 16.506Z" fill="#F06351"/>
<path d="M23.6534 22.4494C23.6534 22.4494 20.1779 21.1981 18.9008 20.8593C18.3012 20.6094 17.639 20.5281 16.9924 20.6251C16.3459 20.7221 15.742 20.9933 15.252 21.4067C14.7521 21.8236 14.3524 22.3382 14.0801 22.9155C13.8078 23.4927 13.6692 24.1191 13.6739 24.752C13.8667 25.1559 14.0135 25.5782 14.1117 26.0119C14.1574 26.429 13.0171 26.3856 12.2873 26.3856C11.5576 26.3856 11.4481 25.1343 12.0228 23.6659C12.4712 22.5367 13.0269 21.4489 13.683 20.4161C8.71152 22.8838 0 28.5839 0 28.5839C2.49185 28.4408 4.99215 28.5106 7.47092 28.7925C12.26 29.253 12.0319 32.8503 12.0319 32.8503C13.7164 32.408 15.433 32.0856 17.1676 31.8858C19.1015 31.7642 19.2383 33.7279 19.2383 33.7279L19.7218 37.0819C20.4559 36.3254 21.2655 35.6386 22.1391 35.0313C23.2652 34.1726 24.699 33.7673 26.1345 33.9017V33.9017L23.6534 22.4494Z" fill="#F06351"/>
</svg>
